<?xml version="1.0" encoding="UTF-8"?>
<svg width="800px" height="600px" viewBox="0 0 800 600" version="1.1" xmlns="http://www.w3.org/2000/svg" xmlns:xlink="http://www.w3.org/1999/xlink">
    <title>iPROMISE Hero</title>
    <defs>
        <linearGradient x1="0%" y1="0%" x2="100%" y2="100%" id="linearGradient-1">
            <stop stop-color="#4F46E5" offset="0%"></stop>
            <stop stop-color="#9333EA" offset="100%"></stop>
        </linearGradient>
        <linearGradient x1="0%" y1="0%" x2="100%" y2="100%" id="linearGradient-2">
            <stop stop-color="#4F46E5" offset="0%"></stop>
            <stop stop-color="#9333EA" offset="100%"></stop>
        </linearGradient>
    </defs>
    <g stroke="none" stroke-width="1" fill="none" fill-rule="evenodd">
        <g transform="translate(100, 50)">
            <!-- Blockchain Network -->
            <circle cx="300" cy="250" r="200" stroke="url(#linearGradient-1)" stroke-width="2" fill-opacity="0.05" fill="url(#linearGradient-1)"></circle>
            <circle cx="300" cy="250" r="150" stroke="url(#linearGradient-1)" stroke-width="2" fill-opacity="0.05" fill="url(#linearGradient-1)"></circle>
            <circle cx="300" cy="250" r="100" stroke="url(#linearGradient-1)" stroke-width="2" fill-opacity="0.05" fill="url(#linearGradient-1)"></circle>

            <!-- Nodes -->
            <circle cx="300" cy="50" r="20" fill="#4F46E5" fill-opacity="0.7"></circle>
            <circle cx="500" cy="250" r="20" fill="#9333EA" fill-opacity="0.7"></circle>
            <circle cx="300" cy="450" r="20" fill="#4F46E5" fill-opacity="0.7"></circle>
            <circle cx="100" cy="250" r="20" fill="#9333EA" fill-opacity="0.7"></circle>
            <circle cx="450" cy="150" r="15" fill="#4F46E5" fill-opacity="0.5"></circle>
            <circle cx="450" cy="350" r="15" fill="#9333EA" fill-opacity="0.5"></circle>
            <circle cx="150" cy="150" r="15" fill="#9333EA" fill-opacity="0.5"></circle>
            <circle cx="150" cy="350" r="15" fill="#4F46E5" fill-opacity="0.5"></circle>

            <!-- Connections -->
            <line x1="300" y1="50" x2="450" y2="150" stroke="#4F46E5" stroke-width="2" stroke-opacity="0.5"></line>
            <line x1="450" y1="150" x2="500" y2="250" stroke="#4F46E5" stroke-width="2" stroke-opacity="0.5"></line>
            <line x1="500" y1="250" x2="450" y2="350" stroke="#9333EA" stroke-width="2" stroke-opacity="0.5"></line>
            <line x1="450" y1="350" x2="300" y2="450" stroke="#9333EA" stroke-width="2" stroke-opacity="0.5"></line>
            <line x1="300" y1="450" x2="150" y2="350" stroke="#4F46E5" stroke-width="2" stroke-opacity="0.5"></line>
            <line x1="150" y1="350" x2="100" y2="250" stroke="#4F46E5" stroke-width="2" stroke-opacity="0.5"></line>
            <line x1="100" y1="250" x2="150" y2="150" stroke="#9333EA" stroke-width="2" stroke-opacity="0.5"></line>
            <line x1="150" y1="150" x2="300" y2="50" stroke="#9333EA" stroke-width="2" stroke-opacity="0.5"></line>

            <!-- Central Elements -->
            <circle cx="300" cy="250" r="60" fill="white" stroke="#4F46E5" stroke-width="2"></circle>
            <g transform="translate(260, 210)">
                <!-- Stylized P for Promise -->
                <path d="M30,0 L40,0 C55,0 65,10 65,25 C65,40 55,50 40,50 L30,50 L30,80 L20,80 L20,0 L30,0 Z" fill="url(#linearGradient-2)"></path>
                <path d="M30,10 L40,10 C50,10 55,15 55,25 C55,35 50,40 40,40 L30,40 L30,10 Z" fill="white"></path>
                <!-- Handshake Symbol -->
                <path d="M38,65 L42,65 L42,60 L38,60 L38,65 Z M43,65 L47,65 L47,60 L43,60 L43,65 Z M48,65 L52,65 L52,60 L48,60 L48,65 Z M53,65 L57,65 L57,60 L53,60 L53,65 Z M58,65 L62,65 L62,60 L58,60 L58,65 Z M63,65 L67,65 L67,60 L63,60 L63,65 Z M68,65 L72,65 L72,60 L68,60 L68,65 Z" fill="#4F46E5"></path>
            </g>
        </g>
    </g>
</svg>
